<svg width="96" height="96" viewBox="0 0 463 461" fill="none" xmlns="http://www.w3.org/2000/svg">
<rect width="463" height="461" fill="#1E1E1E"/>
<path d="M93.6 28.4C75.7333 35.6 61.8667 46.6667 52 61.6C42.4 76.2667 37.6 94.2667 37.6 115.6C37.6 125.467 38.5333 132.4 40.4 136.4C42.2667 140.133 43.2 142.267 43.2 142.8C28.8 142.8 18 139.867 10.8 134C3.86667 127.867 0.4 117.867 0.4 104C0.4 86.9333 7.33333 70.4 21.2 54.4C35.3333 38.1333 53.3333 25.0667 75.2 15.2C97.0667 5.06665 118.933 -2.38419e-05 140.8 -2.38419e-05C144.533 -2.38419e-05 149.867 0.266647 156.8 0.79999L93.2 300H35.6L93.6 28.4Z" fill="#469EB0"/>
<path d="M189 347.2C172.2 347.2 157.4 344.267 144.6 338.4C131.8 332.533 121.933 324.4 115 314C108.067 303.333 104.6 291.067 104.6 277.2C104.6 265.467 107 254.8 111.8 245.2C116.867 235.6 123.533 228 131.8 222.4C140.333 216.8 149.667 214 159.8 214C169.133 214 177 216.4 183.4 221.2C189.8 225.733 193.8 232.133 195.4 240.4C181.533 240.4 170.467 244.133 162.2 251.6C153.933 258.8 149.8 268.667 149.8 281.2C149.8 292.667 153.267 301.867 160.2 308.8C167.133 315.733 176.333 319.2 187.8 319.2C201.933 319.2 213.533 314.533 222.6 305.2C231.933 295.6 236.6 283.6 236.6 269.2C236.6 256.667 233.133 244.8 226.2 233.6C219.267 222.4 208.867 208.8 195 192.8C180.6 176.267 169.667 162.133 162.2 150.4C155 138.4 151.4 125.333 151.4 111.2C151.4 97.3333 155.267 84.9333 163 74C170.733 62.8 181.4 54 195 47.6C208.6 41.2 223.933 38 241 38C262.6 38 279.8 43.0667 292.6 53.2C305.667 63.3333 312.2 76.9333 312.2 94C312.2 105.2 309.4 114.267 303.8 121.2C298.2 128.133 290.867 131.6 281.8 131.6C271.667 131.6 263.533 127.467 257.4 119.2C262.467 115.467 266.467 110.533 269.4 104.4C272.333 98.2666 273.8 91.8667 273.8 85.2C273.8 76.6667 271.267 69.8667 266.2 64.8C261.133 59.7333 254.2 57.2 245.4 57.2C234.733 57.2 225.933 61.0667 219 68.8C212.333 76.2667 209 85.8667 209 97.6C209 108.267 212.067 118.267 218.2 127.6C224.333 136.667 233.933 148.4 247 162.8C257.667 174.267 266.2 184.133 272.6 192.4C279.267 200.667 284.867 210.267 289.4 221.2C294.2 231.867 296.6 243.467 296.6 256C296.6 273.067 291.8 288.533 282.2 302.4C272.867 316.267 259.933 327.2 243.4 335.2C227.133 343.2 209 347.2 189 347.2Z" fill="#463F39"/>
<path d="M317 206.6L376.2 198.6L347.8 332.2C360.6 331.133 372.333 325.533 383 315.4C393.933 305.267 402.467 292.733 408.6 277.8C414.733 262.867 417.8 248.2 417.8 233.8C417.8 217.8 413.667 204.733 405.4 194.6C397.133 184.467 384.733 179.4 368.2 179.4C335.667 179.4 310.2 187.933 291.8 205C273.667 222.067 264.6 245.933 264.6 276.6C264.6 286.467 265.533 293.4 267.4 297.4C269.267 301.133 270.2 303.267 270.2 303.8C255.8 303.8 245 300.867 237.8 295C230.867 288.867 227.4 278.867 227.4 265C227.4 247.933 234.333 231.4 248.2 215.4C262.333 199.133 280.333 186.067 302.2 176.2C324.067 166.067 345.933 161 367.8 161C388.867 161 406.467 164.6 420.6 171.8C434.733 179 445.133 188.6 451.8 200.6C458.733 212.333 462.2 225.4 462.2 239.8C462.2 257.133 457.4 274.067 447.8 290.6C438.467 307.133 425 320.733 407.4 331.4C389.8 341.8 369.533 347 346.6 347H344.6L320.2 461H262.6L317 206.6Z" fill="#469EB0"/>
</svg>
